mtllib materials.mtl
v -0.6198593 -0.0721032 -0.6887381
v -0.6196595 -0.05210418 -0.6887646
v -0.699706 -0.04961735 0.5887278
v -0.6999058 -0.06961632 0.5887542
v 0.6575714 -0.08476073 -0.6086709
v 0.5775251 -0.0822739 0.6688213
v 0.5777249 -0.06227487 0.6687949
v 0.6577712 -0.06476176 -0.6086974
v -0.6961519 -0.06012237 -0.6063936
v -0.6962947 -0.04012358 -0.6062245
v -0.5735031 -0.05001265 0.6678337
v -0.5733604 -0.07001144 0.6676647
v 0.577912 -0.04999107 -0.7291069
v 0.7007034 -0.05988014 0.5449514
v 0.7005607 -0.03988135 0.5451204
v 0.5777693 -0.02999228 -0.7289379
v -0.6541834 -0.03782415 -0.5745018
v -0.6545045 -0.01782984 -0.5748525
v -0.5950321 0.005553961 0.7035512
v -0.5947109 -0.01444036 0.7039021
v 0.6242692 -0.01833951 -0.6343329
v 0.6837416 0.005044281 0.644071
v 0.6834204 0.0250386 0.6437202
v 0.623948 0.001654804 -0.6346836
v -0.656059 -0.008380711 -0.6049905
v -0.6563802 0.01161361 -0.6053412
v -0.5969077 0.0349974 0.6730626
v -0.5965866 0.01500309 0.6734135
v 0.6223935 0.01110393 -0.6648214
v 0.6818659 0.03448772 0.6135824
v 0.6815448 0.05448204 0.6132316
v 0.6220724 0.03109825 -0.6651723
v -0.6097704 -0.0003753901 -0.646801
v -0.6101764 0.01962 -0.64694
v -0.6361247 0.02799493 0.6327696
v -0.6357188 0.007999539 0.6329087
v 0.6697029 0.02577919 -0.6210284
v 0.6437545 0.03415412 0.6586812
v 0.6433486 0.05414951 0.6585421
v 0.669297 0.04577458 -0.6211677
v -0.5996985 0.01948088 -0.6546707
v -0.6002429 0.03947258 -0.6548591
v -0.6386613 0.05047393 0.6245171
v -0.638117 0.03048223 0.6247054
v 0.6792506 0.05465925 -0.6165676
v 0.6408322 0.0656606 0.6628085
v 0.6402879 0.08565229 0.6626202
v 0.6787063 0.07465094 -0.6167557
v -0.762298 0.04888469 -0.4058694
v -0.7613293 0.02891952 -0.4065437
v 0.4698792 0.100235 -0.749239
v 0.4689105 0.1202001 -0.7485647
v -0.4177955 0.02397442 0.8266475
v 0.813413 0.09528989 0.4839522
v 0.8143818 0.07532471 0.4832779
v -0.4168267 0.004009306 0.8259732
v -0.7336456 0.07493746 -0.5531651
v -0.7330436 0.05494773 -0.5533826
v 0.5382975 0.09479773 -0.6965756
v 0.5376953 0.1147875 -0.696358
v -0.5900925 0.06541884 0.7187241
v 0.6812485 0.1052688 0.5755312
v 0.6818506 0.08527911 0.5753137
v -0.5894903 0.04542905 0.7185066
v -0.7249957 0.0538066 -0.5531135
v -0.724445 0.03381431 -0.5530453
v 0.5476782 0.0683912 -0.6905484
v 0.5471274 0.0883835 -0.6906166
v -0.5876633 0.06193244 0.719472
v 0.6844598 0.09650934 0.5819688
v 0.6850106 0.07651705 0.582037
v -0.5871125 0.04194015 0.7195402
v -0.3053212 -0.0191291 -0.871388
v -0.3056706 0.0008627772 -0.8718388
v -0.8402538 0.01773787 0.2910609
v -0.8399044 -0.002254009 0.2915118
v 0.857486 0.01323664 -0.337317
v 0.3229028 0.03011173 0.8255827
v 0.3225534 0.0501036 0.825132
v 0.8571366 0.03322852 -0.3377678
v -0.6764771 -0.09723651 -0.6474085
v -0.6764828 -0.07723832 -0.647141
v -0.6527251 -0.09434068 0.632524
v -0.6527195 -0.1143389 0.6322567
v 0.6033022 -0.09655571 -0.671159
v 0.6270598 -0.1136581 0.6085061
v 0.6270541 -0.09365988 0.6087735
v 0.6032965 -0.07655752 -0.6708918
v -0.7289934 -0.0909 -0.6047502
v -0.7290872 -0.07090038 -0.6046858
v -0.6158456 -0.07447159 0.6702901
v -0.6157516 -0.09447128 0.6702257
v 0.5459734 -0.08455133 -0.7179732
v 0.6592152 -0.08812255 0.5570026
v 0.6591213 -0.06812292 0.5570669
v 0.5458795 -0.06455165 -0.7179089
v -0.6346669 -0.03570747 -0.5940804
v -0.6352156 -0.01571512 -0.5940168
v -0.6034344 -0.01891458 0.6855847
v -0.6028857 -0.03890699 0.6855211
v 0.6444565 -0.0004998446 -0.6257615
v 0.6762377 -0.003699303 0.6538398
v 0.675689 0.01629305 0.6539034
v 0.6439078 0.01949257 -0.6256981
v -0.4236656 -0.03167951 -0.8330228
v -0.4242246 -0.01168823 -0.8328369
v -0.7922043 -0.03337973 0.3929366
v -0.7916454 -0.05337107 0.3927506
v 0.8017777 -0.0008475184 -0.4645966
v 0.4337981 -0.02253902 0.7611768
v 0.4332392 -0.002547741 0.7613628
v 0.8012188 0.01914382 -0.4644107
vn -0.9979928 0.00988871 -0.06255244
vn 0.9979928 -0.00988871 0.06255244
vn 0.06253622 -0.001942232 -0.9980408
vn -0.06253622 0.001942232 0.9980408
vn -0.009990872 -0.9999492 0.001320738
vn 0.009990872 0.9999492 -0.001320738
vn -0.9953624 -0.007915109 0.09586978
vn 0.9953624 0.007915109 -0.09586978
vn -0.0959308 0.007726454 -0.995358
vn 0.0959308 -0.007726454 0.995358
vn 0.007137693 -0.9999388 -0.00844932
vn -0.007137693 0.9999388 0.00844932
vn -0.998791 -0.01522236 0.04674302
vn 0.998791 0.01522236 -0.04674302
vn -0.04646282 -0.01826797 -0.998753
vn 0.04646282 0.01826797 0.998753
vn 0.01605732 -0.9997173 0.01753937
vn -0.01605732 0.9997173 -0.01753937
vn -0.998791 -0.01522236 0.04674302
vn 0.998791 0.01522236 -0.04674302
vn -0.04646282 -0.01826797 -0.998753
vn 0.04646282 0.01826797 0.998753
vn 0.01605732 -0.9997173 0.01753937
vn -0.01605732 0.9997173 -0.01753937
vn -0.9995885 -0.02043326 -0.02013471
vn 0.9995885 0.02043326 0.02013471
vn 0.02027217 -0.006542268 -0.9997731
vn -0.02027217 0.006542268 0.9997731
vn 0.02029689 -0.9997699 0.006954581
vn -0.02029689 0.9997699 -0.006954581
vn -0.9991789 -0.02748312 -0.02976804
vn 0.9991789 0.02748312 0.02976804
vn 0.03001439 -0.008594184 -0.9995126
vn -0.03001439 0.008594184 0.9995126
vn 0.02721388 -0.9995854 0.00941277
vn -0.02721388 0.9995854 -0.00941277
vn -0.2691426 0.01946112 -0.9629037
vn 0.2691426 -0.01946112 0.9629037
vn -0.9618815 -0.05571582 0.2677307
vn 0.9618815 0.05571582 -0.2677307
vn -0.04843818 0.998257 0.03371477
vn 0.04843818 -0.998257 -0.03371477
vn -0.1121509 0.007436454 -0.9936634
vn 0.1121509 -0.007436454 0.9936634
vn -0.9932352 -0.03113344 0.1118694
vn 0.9932352 0.03113344 -0.1118694
vn -0.03010374 0.9994876 0.01087785
vn 0.03010374 -0.9994876 -0.01087785
vn -0.1072909 -0.006348311 -0.9942074
vn 0.1072909 0.006348311 0.9942074
vn -0.9938462 -0.0270138 0.1074244
vn 0.9938462 0.0270138 -0.1074244
vn -0.02753872 0.999615 -0.003410995
vn 0.02753872 -0.999615 0.003410995
vn -0.9084432 -0.02528574 -0.417243
vn 0.9084432 0.02528574 0.417243
vn 0.4176432 -0.01318307 -0.9085155
vn -0.4176432 0.01318307 0.9085155
vn 0.01747169 -0.9995933 0.02253707
vn -0.01747169 0.9995933 -0.02253707
vn -0.9998277 -0.0005318655 0.01855517
vn 0.9998277 0.0005318655 -0.01855517
vn -0.01856061 0.01336183 -0.9997385
vn 0.01856061 -0.01336183 0.9997385
vn 0.0002838049 -0.9999106 -0.01336891
vn -0.0002838049 0.9999106 0.01336891
vn -0.9960678 -0.004959919 0.08845562
vn 0.9960678 0.004959919 -0.08845562
vn -0.08847014 0.002790656 -0.996075
vn 0.08847014 -0.002790656 0.996075
vn 0.004693653 -0.9999838 -0.003217816
vn -0.004693653 0.9999838 0.003217816
vn -0.9993152 -0.02750599 0.024751
vn 0.9993152 0.02750599 -0.024751
vn -0.02482905 0.002500211 -0.9996886
vn 0.02482905 -0.002500211 0.9996886
vn 0.02743555 -0.9996185 -0.003180793
vn -0.02743555 0.9996185 0.003180793
vn -0.9573777 -0.02408753 -0.2878329
vn 0.9573777 0.02408753 0.2878329
vn 0.2874841 0.01694715 -0.9576355
vn -0.2874841 -0.01694715 0.9576355
vn 0.02794485 -0.9995662 -0.009299427
vn -0.02794485 0.9995662 0.009299427
vt 0.1088578 0.1847516
vt 0.1075907 0.186299
vt 0.008560054 0.1052006
vt 0.009827215 0.1036533
vt -0.1088578 0.1847516
vt -0.009827215 0.1036533
vt -0.00856005 0.1052006
vt -0.1075907 0.1862989
vt -0.1534328 -0.1328584
vt -0.09385954 -0.01956667
vt -0.09562973 -0.01863584
vt -0.155203 -0.1319276
vt 0.1534329 -0.1328584
vt 0.1552031 -0.1319276
vt 0.0956298 -0.0186358
vt 0.09385961 -0.01956663
vt -0.2596163 -0.09398474
vt -0.1420531 -0.14461
vt -0.0914279 -0.02704681
vt -0.208991 0.0235784
vt 0.2596163 -0.09398474
vt 0.208991 0.0235784
vt 0.0914279 -0.02704682
vt 0.1420531 -0.14461
vt 0.1592088 0.1721555
vt 0.1582615 0.173917
vt 0.0455296 0.1132909
vt 0.04647688 0.1115294
vt -0.1592088 0.1721555
vt -0.04647688 0.1115294
vt -0.04552959 0.1132909
vt -0.1582615 0.173917
vt -0.1381867 -0.1136273
vt -0.08337034 0.002041077
vt -0.08517765 0.002897583
vt -0.139994 -0.1127708
vt 0.1381868 -0.1136272
vt 0.1399941 -0.1127707
vt 0.08517773 0.002897617
vt 0.08337041 0.002041111
vt -0.2548629 -0.1020779
vt -0.1308279 -0.13369
vt -0.09921581 -0.009654973
vt -0.2232508 0.0219571
vt 0.2548629 -0.1020779
vt 0.2232508 0.0219571
vt 0.09921581 -0.009654973
vt 0.1308279 -0.13369
vt 0.1325862 0.1815168
vt 0.1315392 0.1832208
vt 0.02247949 0.1162136
vt 0.02352648 0.1145095
vt -0.1325862 0.1815168
vt -0.02352648 0.1145095
vt -0.02247949 0.1162136
vt -0.1315392 0.1832208
vt -0.1494166 -0.1145964
vt -0.09412069 0.0008434899
vt -0.09592443 0.001707487
vt -0.1512204 -0.1137324
vt 0.1494167 -0.1145964
vt 0.1512204 -0.1137324
vt 0.0959245 0.00170752
vt 0.09412076 0.0008435228
vt -0.2469317 -0.1023469
vt -0.1241391 -0.1384851
vt -0.08800088 -0.01569248
vt -0.2107935 0.02044577
vt 0.2469317 -0.1023469
vt 0.2107935 0.02044576
vt 0.08800088 -0.01569248
vt 0.1241391 -0.1384851
vt 0.1335718 0.1856434
vt 0.1325248 0.1873474
vt 0.02346509 0.1203402
vt 0.02451207 0.1186361
vt -0.1335718 0.1856433
vt -0.02451207 0.1186361
vt -0.02346508 0.1203402
vt -0.1325248 0.1873474
vt -0.1521222 -0.1133004
vt -0.09682631 0.002139482
vt -0.09863006 0.00300348
vt -0.153926 -0.1124364
vt 0.1521223 -0.1133004
vt 0.1539261 -0.1124364
vt 0.09863012 0.003003513
vt 0.09682638 0.002139516
vt -0.2498097 -0.1014999
vt -0.1270171 -0.1376381
vt -0.09087881 -0.0148455
vt -0.2136714 0.02129274
vt 0.2498097 -0.1014999
vt 0.2136714 0.02129275
vt 0.09087881 -0.0148455
vt 0.1270171 -0.1376381
vt 0.1078629 0.1945545
vt 0.1066368 0.1961346
vt 0.005510111 0.1176655
vt 0.006736191 0.1160854
vt -0.1078629 0.1945545
vt -0.00673619 0.1160854
vt -0.005510109 0.1176655
vt -0.1066368 0.1961346
vt -0.155515 -0.1213214
vt -0.100049 -0.005963126
vt -0.1018515 -0.005096474
vt -0.1573175 -0.1204548
vt 0.1555151 -0.1213214
vt 0.1573175 -0.1204547
vt 0.1018516 -0.005096433
vt 0.1000491 -0.00596309
vt -0.2533629 -0.09410094
vt -0.1334375 -0.1388436
vt -0.08869488 -0.01891817
vt -0.2086203 0.02582446
vt 0.2533629 -0.09410094
vt 0.2086203 0.02582447
vt 0.08869487 -0.01891817
vt 0.1334375 -0.1388436
vt 0.1013061 0.1985478
vt 0.1000529 0.2001065
vt 0.0002996326 0.1198986
vt 0.001552881 0.11834
vt -0.1013061 0.1985478
vt -0.001552878 0.11834
vt -0.0002996343 0.1198986
vt -0.1000529 0.2001065
vt -0.1583742 -0.1207889
vt -0.1034688 -0.005162797
vt -0.1052754 -0.004304898
vt -0.1601809 -0.119931
vt 0.1583743 -0.1207889
vt 0.160181 -0.119931
vt 0.1052755 -0.004304867
vt 0.1034689 -0.005162761
vt -0.2531394 -0.09286098
vt -0.1335592 -0.1385181
vt -0.08790202 -0.01893789
vt -0.2074822 0.02671924
vt 0.2531394 -0.09286098
vt 0.2074822 0.02671924
vt 0.08790203 -0.01893789
vt 0.1335592 -0.1385181
vt -0.1317425 -0.08485533
vt -0.1298882 -0.08560474
vt -0.08192573 0.03306962
vt -0.08378001 0.03381903
vt 0.1317425 -0.08485533
vt 0.08378001 0.03381903
vt 0.08192573 0.03306962
vt 0.1298882 -0.08560474
vt 0.2091426 0.132289
vt 0.08345253 0.1080815
vt 0.08383077 0.1061176
vt 0.2095209 0.1303251
vt -0.2091426 0.1322889
vt -0.2095209 0.130325
vt -0.08383079 0.1061175
vt -0.08345255 0.1080814
vt 0.2396285 -0.1097729
vt 0.2296952 0.01784108
vt 0.1020812 0.007907843
vt 0.1120145 -0.1197062
vt -0.2396285 -0.1097729
vt -0.1120145 -0.1197062
vt -0.1020812 0.007907842
vt -0.2296952 0.01784108
vt -0.1505688 -0.1085469
vt -0.1487409 -0.1093587
vt -0.09678857 0.007623998
vt -0.09861644 0.008435749
vt 0.1505688 -0.108547
vt 0.09861643 0.008435753
vt 0.09678857 0.007623998
vt 0.1487409 -0.1093587
vt 0.1503373 0.1853904
vt 0.03719949 0.1255252
vt 0.03813488 0.1237574
vt 0.1512727 0.1836226
vt -0.1503373 0.1853903
vt -0.1512727 0.1836226
vt -0.03813493 0.1237573
vt -0.03719953 0.1255251
vt 0.2504391 -0.1058327
vt 0.2211579 0.01877311
vt 0.09655206 -0.01050804
vt 0.1258332 -0.1351139
vt -0.2504391 -0.1058327
vt -0.1258332 -0.1351139
vt -0.09655206 -0.01050804
vt -0.2211579 0.01877312
vt -0.1518061 -0.1078736
vt -0.1499842 -0.1086985
vt -0.09718748 0.007905514
vt -0.09900942 0.008730465
vt 0.1518061 -0.1078736
vt 0.09900942 0.008730466
vt 0.09718747 0.007905516
vt 0.1499842 -0.1086985
vt 0.1501525 0.1831436
vt 0.03643153 0.1243939
vt 0.0373495 0.122617
vt 0.1510705 0.1813667
vt -0.1501526 0.1831435
vt -0.1510706 0.1813666
vt -0.03734953 0.1226169
vt -0.03643157 0.1243938
vt 0.2483905 -0.1071264
vt 0.2192364 0.01750926
vt 0.0946008 -0.01164484
vt 0.1237549 -0.1362805
vt -0.2483905 -0.1071264
vt -0.1237549 -0.1362805
vt -0.0946008 -0.01164484
vt -0.2192364 0.01750926
vt 0.00896121 0.1728497
vt 0.007297142 0.1739592
vt -0.06370713 0.06745848
vt -0.06204306 0.06634903
vt -0.008961214 0.1728497
vt 0.06204306 0.06634903
vt 0.06370713 0.06745847
vt -0.007297146 0.1739592
vt -0.1952983 -0.1425554
vt -0.1266723 -0.03450691
vt -0.1283606 -0.03343463
vt -0.1969866 -0.1414831
vt 0.1952984 -0.1425553
vt 0.1969866 -0.1414831
vt 0.1283606 -0.03343458
vt 0.1266724 -0.03450687
vt -0.2629537 -0.06031067
vt -0.170277 -0.1486001
vt -0.08198755 -0.05592339
vt -0.1746643 0.03236604
vt 0.2629537 -0.06031067
vt 0.1746643 0.03236605
vt 0.08198754 -0.05592339
vt 0.170277 -0.1486001
vt 0.1345121 0.1793845
vt 0.133368 0.1810249
vt 0.02838103 0.107801
vt 0.02952514 0.1061606
vt -0.1345121 0.1793845
vt -0.02952514 0.1061606
vt -0.02838102 0.107801
vt -0.133368 0.1810249
vt -0.1410786 -0.1278963
vt -0.08460914 -0.01302594
vt -0.08640398 -0.0121436
vt -0.1428734 -0.127014
vt 0.1410787 -0.1278962
vt 0.1428735 -0.1270139
vt 0.08640406 -0.01214357
vt 0.0846092 -0.0130259
vt -0.2588481 -0.09838226
vt -0.1377673 -0.1398967
vt -0.09625293 -0.0188159
vt -0.2173337 0.0226985
vt 0.2588481 -0.09838226
vt 0.2173337 0.0226985
vt 0.09625293 -0.01881589
vt 0.1377673 -0.1398966
vt 0.1582853 0.1700356
vt 0.1573299 0.1717926
vt 0.0448762 0.1106522
vt 0.04583152 0.1088951
vt -0.1582852 0.1700356
vt -0.04583151 0.1088951
vt -0.0448762 0.1106522
vt -0.1573299 0.1717926
vt -0.1387622 -0.1186927
vt -0.08340158 -0.003283835
vt -0.08520485 -0.002418826
vt -0.1405655 -0.1178277
vt 0.1387623 -0.1186927
vt 0.1405655 -0.1178276
vt 0.08520491 -0.002418789
vt 0.08340166 -0.003283797
vt -0.2553028 -0.1060353
vt -0.1314459 -0.1383379
vt -0.09914334 -0.01448092
vt -0.2230003 0.01782165
vt 0.2553028 -0.1060353
vt 0.2230003 0.01782165
vt 0.09914334 -0.01448092
vt 0.1314459 -0.1383379
vt 0.1215865 0.1880256
vt 0.1204312 0.1896582
vt 0.01594442 0.1157223
vt 0.01709966 0.1140897
vt -0.1215864 0.1880256
vt -0.01709966 0.1140897
vt -0.01594442 0.1157223
vt -0.1204312 0.1896582
vt -0.1465608 -0.1190125
vt -0.09296003 -0.002775904
vt -0.09477623 -0.00193839
vt -0.148377 -0.118175
vt 0.1465609 -0.1190125
vt 0.1483771 -0.118175
vt 0.0947763 -0.001938356
vt 0.0929601 -0.002775866
vt -0.2501696 -0.09660988
vt -0.128484 -0.1363164
vt -0.08877749 -0.01463073
vt -0.2104631 0.02507575
vt 0.2501696 -0.09660988
vt 0.2104631 0.02507576
vt 0.08877749 -0.01463073
vt 0.128484 -0.1363164
vt 0.03726951 0.1887538
vt 0.03565751 0.1899376
vt -0.04010773 0.08676962
vt -0.03849573 0.08558578
vt -0.03726951 0.1887538
vt 0.03849573 0.08558578
vt 0.04010773 0.0867696
vt -0.03565751 0.1899376
vt -0.1729325 -0.148111
vt -0.1120591 -0.0355124
vt -0.1138185 -0.03456125
vt -0.1746918 -0.1471598
vt 0.1729326 -0.1481109
vt 0.1746919 -0.1471598
vt 0.1138185 -0.03456121
vt 0.1120592 -0.03551235
vt -0.2662808 -0.06788559
vt -0.1631999 -0.1437692
vt -0.08731629 -0.04068827
vt -0.1903972 0.03519534
vt 0.2662808 -0.0678856
vt 0.1903972 0.03519534
vt 0.08731629 -0.04068827
vt 0.1631999 -0.1437692
o group1156458666
g mesh1156458666
usemtl mat13
f 4/4/1 3/3/1 2/2/1 1/1/1
f 8/8/2 7/7/2 6/6/2 5/5/2
f 2/12/3 8/11/3 5/10/3 1/9/3
f 6/16/4 7/15/4 3/14/4 4/13/4
f 5/20/5 6/19/5 4/18/5 1/17/5
f 3/24/6 7/23/6 8/22/6 2/21/6
o group1704534164
g mesh1704534164
usemtl mat1
f 12/28/7 11/27/7 10/26/7 9/25/7
f 16/32/8 15/31/8 14/30/8 13/29/8
f 10/36/9 16/35/9 13/34/9 9/33/9
f 14/40/10 15/39/10 11/38/10 12/37/10
f 13/44/11 14/43/11 12/42/11 9/41/11
f 11/48/12 15/47/12 16/46/12 10/45/12
o group1599080130
g mesh1599080130
usemtl mat16
f 20/52/13 19/51/13 18/50/13 17/49/13
f 24/56/14 23/55/14 22/54/14 21/53/14
f 18/60/15 24/59/15 21/58/15 17/57/15
f 22/64/16 23/63/16 19/62/16 20/61/16
f 21/68/17 22/67/17 20/66/17 17/65/17
f 19/72/18 23/71/18 24/70/18 18/69/18
o group1679567239
g mesh1679567239
usemtl mat3
f 28/76/19 27/75/19 26/74/19 25/73/19
f 32/80/20 31/79/20 30/78/20 29/77/20
f 26/84/21 32/83/21 29/82/21 25/81/21
f 30/88/22 31/87/22 27/86/22 28/85/22
f 29/92/23 30/91/23 28/90/23 25/89/23
f 27/96/24 31/95/24 32/94/24 26/93/24
o group92535811
g mesh92535811
usemtl mat12
f 36/100/25 35/99/25 34/98/25 33/97/25
f 40/104/26 39/103/26 38/102/26 37/101/26
f 34/108/27 40/107/27 37/106/27 33/105/27
f 38/112/28 39/111/28 35/110/28 36/109/28
f 37/116/29 38/115/29 36/114/29 33/113/29
f 35/120/30 39/119/30 40/118/30 34/117/30
o group836232659
g mesh836232659
usemtl mat18
f 44/124/31 43/123/31 42/122/31 41/121/31
f 48/128/32 47/127/32 46/126/32 45/125/32
f 42/132/33 48/131/33 45/130/33 41/129/33
f 46/136/34 47/135/34 43/134/34 44/133/34
f 45/140/35 46/139/35 44/138/35 41/137/35
f 43/144/36 47/143/36 48/142/36 42/141/36
o group889141102
g mesh889141102
usemtl mat22
f 52/148/37 51/147/37 50/146/37 49/145/37
f 56/152/38 55/151/38 54/150/38 53/149/38
f 50/156/39 56/155/39 53/154/39 49/153/39
f 54/160/40 55/159/40 51/158/40 52/157/40
f 53/164/41 54/163/41 52/162/41 49/161/41
f 51/168/42 55/167/42 56/166/42 50/165/42
o group608281267
g mesh608281267
usemtl mat22
f 60/172/43 59/171/43 58/170/43 57/169/43
f 64/176/44 63/175/44 62/174/44 61/173/44
f 58/180/45 64/179/45 61/178/45 57/177/45
f 62/184/46 63/183/46 59/182/46 60/181/46
f 61/188/47 62/187/47 60/186/47 57/185/47
f 59/192/48 63/191/48 64/190/48 58/189/48
o group924230297
g mesh924230297
usemtl mat6
f 68/196/49 67/195/49 66/194/49 65/193/49
f 72/200/50 71/199/50 70/198/50 69/197/50
f 66/204/51 72/203/51 69/202/51 65/201/51
f 70/208/52 71/207/52 67/206/52 68/205/52
f 69/212/53 70/211/53 68/210/53 65/209/53
f 67/216/54 71/215/54 72/214/54 66/213/54
o group1241777729
g mesh1241777729
usemtl mat20
f 76/220/55 75/219/55 74/218/55 73/217/55
f 80/224/56 79/223/56 78/222/56 77/221/56
f 74/228/57 80/227/57 77/226/57 73/225/57
f 78/232/58 79/231/58 75/230/58 76/229/58
f 77/236/59 78/235/59 76/234/59 73/233/59
f 75/240/60 79/239/60 80/238/60 74/237/60
o group628806985
g mesh628806985
usemtl mat23
f 84/244/61 83/243/61 82/242/61 81/241/61
f 88/248/62 87/247/62 86/246/62 85/245/62
f 82/252/63 88/251/63 85/250/63 81/249/63
f 86/256/64 87/255/64 83/254/64 84/253/64
f 85/260/65 86/259/65 84/258/65 81/257/65
f 83/264/66 87/263/66 88/262/66 82/261/66
o group906853290
g mesh906853290
usemtl mat21
f 92/268/67 91/267/67 90/266/67 89/265/67
f 96/272/68 95/271/68 94/270/68 93/269/68
f 90/276/69 96/275/69 93/274/69 89/273/69
f 94/280/70 95/279/70 91/278/70 92/277/70
f 93/284/71 94/283/71 92/282/71 89/281/71
f 91/288/72 95/287/72 96/286/72 90/285/72
o group481526367
g mesh481526367
usemtl mat23
f 100/292/73 99/291/73 98/290/73 97/289/73
f 104/296/74 103/295/74 102/294/74 101/293/74
f 98/300/75 104/299/75 101/298/75 97/297/75
f 102/304/76 103/303/76 99/302/76 100/301/76
f 101/308/77 102/307/77 100/306/77 97/305/77
f 99/312/78 103/311/78 104/310/78 98/309/78
o group1542908697
g mesh1542908697
usemtl mat16
f 108/316/79 107/315/79 106/314/79 105/313/79
f 112/320/80 111/319/80 110/318/80 109/317/80
f 106/324/81 112/323/81 109/322/81 105/321/81
f 110/328/82 111/327/82 107/326/82 108/325/82
f 109/332/83 110/331/83 108/330/83 105/329/83
f 107/336/84 111/335/84 112/334/84 106/333/84
